<mxfile host="app.diagrams.net" modified="2021-06-03T11:23:57.892Z" agent="5.0 (Macintosh; Intel Mac OS X 10_15_5) AppleWebKit/537.36 (KHTML, like Gecko) Chrome/90.0.4430.212 Safari/537.36 Edg/90.0.818.62" etag="9R1-mmx165Y8cjCzHf2V" version="14.7.4" type="github">
  <diagram id="aSERi1UO-7CWBfo_01V3" name="第 1 页">
    <mxGraphModel dx="1026" dy="557" grid="1" gridSize="10" guides="1" tooltips="1" connect="1" arrows="1" fold="1" page="1" pageScale="1" pageWidth="827" pageHeight="1169" math="0" shadow="0">
      <root>
        <mxCell id="0" />
        <mxCell id="1" parent="0" />
        <mxCell id="8FOSQ_KOmECjReQ8Uwmb-40" style="edgeStyle=orthogonalEdgeStyle;rounded=0;orthogonalLoop=1;jettySize=auto;html=1;entryX=0;entryY=0.5;entryDx=0;entryDy=0;" edge="1" parent="1" source="8FOSQ_KOmECjReQ8Uwmb-1" target="8FOSQ_KOmECjReQ8Uwmb-2">
          <mxGeometry relative="1" as="geometry" />
        </mxCell>
        <mxCell id="8FOSQ_KOmECjReQ8Uwmb-1" value="客户端" style="rounded=0;whiteSpace=wrap;html=1;" vertex="1" parent="1">
          <mxGeometry x="40" y="80" width="80" height="20" as="geometry" />
        </mxCell>
        <mxCell id="8FOSQ_KOmECjReQ8Uwmb-41" style="edgeStyle=orthogonalEdgeStyle;rounded=0;orthogonalLoop=1;jettySize=auto;html=1;entryX=0;entryY=0.5;entryDx=0;entryDy=0;" edge="1" parent="1" source="8FOSQ_KOmECjReQ8Uwmb-2" target="8FOSQ_KOmECjReQ8Uwmb-3">
          <mxGeometry relative="1" as="geometry" />
        </mxCell>
        <mxCell id="8FOSQ_KOmECjReQ8Uwmb-42" style="edgeStyle=orthogonalEdgeStyle;rounded=0;orthogonalLoop=1;jettySize=auto;html=1;entryX=0;entryY=0.5;entryDx=0;entryDy=0;" edge="1" parent="1" source="8FOSQ_KOmECjReQ8Uwmb-2" target="8FOSQ_KOmECjReQ8Uwmb-4">
          <mxGeometry relative="1" as="geometry" />
        </mxCell>
        <mxCell id="8FOSQ_KOmECjReQ8Uwmb-2" value="s3服务器" style="rounded=0;whiteSpace=wrap;html=1;" vertex="1" parent="1">
          <mxGeometry x="250" y="80" width="80" height="20" as="geometry" />
        </mxCell>
        <mxCell id="8FOSQ_KOmECjReQ8Uwmb-3" value="文件服务器" style="rounded=0;whiteSpace=wrap;html=1;" vertex="1" parent="1">
          <mxGeometry x="480" y="50" width="80" height="20" as="geometry" />
        </mxCell>
        <mxCell id="8FOSQ_KOmECjReQ8Uwmb-4" value="业务服务器" style="rounded=0;whiteSpace=wrap;html=1;" vertex="1" parent="1">
          <mxGeometry x="480" y="120" width="80" height="20" as="geometry" />
        </mxCell>
        <mxCell id="8FOSQ_KOmECjReQ8Uwmb-32" style="edgeStyle=orthogonalEdgeStyle;rounded=0;orthogonalLoop=1;jettySize=auto;html=1;exitX=0.5;exitY=1;exitDx=0;exitDy=0;entryX=0.5;entryY=0;entryDx=0;entryDy=0;" edge="1" parent="1" source="8FOSQ_KOmECjReQ8Uwmb-15" target="8FOSQ_KOmECjReQ8Uwmb-16">
          <mxGeometry relative="1" as="geometry" />
        </mxCell>
        <mxCell id="8FOSQ_KOmECjReQ8Uwmb-15" value="开始" style="rounded=1;whiteSpace=wrap;html=1;" vertex="1" parent="1">
          <mxGeometry x="255" y="310" width="70" height="20" as="geometry" />
        </mxCell>
        <mxCell id="8FOSQ_KOmECjReQ8Uwmb-33" style="edgeStyle=orthogonalEdgeStyle;rounded=0;orthogonalLoop=1;jettySize=auto;html=1;exitX=0.5;exitY=1;exitDx=0;exitDy=0;" edge="1" parent="1" source="8FOSQ_KOmECjReQ8Uwmb-16" target="8FOSQ_KOmECjReQ8Uwmb-17">
          <mxGeometry relative="1" as="geometry" />
        </mxCell>
        <mxCell id="8FOSQ_KOmECjReQ8Uwmb-16" value="客户端" style="rounded=0;whiteSpace=wrap;html=1;" vertex="1" parent="1">
          <mxGeometry x="255" y="360" width="70" height="20" as="geometry" />
        </mxCell>
        <mxCell id="8FOSQ_KOmECjReQ8Uwmb-34" style="edgeStyle=orthogonalEdgeStyle;rounded=0;orthogonalLoop=1;jettySize=auto;html=1;exitX=0.5;exitY=1;exitDx=0;exitDy=0;entryX=0.5;entryY=0;entryDx=0;entryDy=0;" edge="1" parent="1" source="8FOSQ_KOmECjReQ8Uwmb-17" target="8FOSQ_KOmECjReQ8Uwmb-18">
          <mxGeometry relative="1" as="geometry" />
        </mxCell>
        <mxCell id="8FOSQ_KOmECjReQ8Uwmb-17" value="s3服务器" style="rounded=0;whiteSpace=wrap;html=1;" vertex="1" parent="1">
          <mxGeometry x="257.5" y="420" width="65" height="20" as="geometry" />
        </mxCell>
        <mxCell id="8FOSQ_KOmECjReQ8Uwmb-35" style="edgeStyle=orthogonalEdgeStyle;rounded=0;orthogonalLoop=1;jettySize=auto;html=1;exitX=0.5;exitY=1;exitDx=0;exitDy=0;entryX=0.5;entryY=0;entryDx=0;entryDy=0;" edge="1" parent="1" source="8FOSQ_KOmECjReQ8Uwmb-18" target="8FOSQ_KOmECjReQ8Uwmb-23">
          <mxGeometry relative="1" as="geometry" />
        </mxCell>
        <mxCell id="8FOSQ_KOmECjReQ8Uwmb-18" value="验证签名" style="rhombus;whiteSpace=wrap;html=1;" vertex="1" parent="1">
          <mxGeometry x="251.5" y="470" width="77" height="30" as="geometry" />
        </mxCell>
        <mxCell id="8FOSQ_KOmECjReQ8Uwmb-26" style="edgeStyle=orthogonalEdgeStyle;rounded=0;orthogonalLoop=1;jettySize=auto;html=1;exitX=0;exitY=0.5;exitDx=0;exitDy=0;entryX=0.5;entryY=0;entryDx=0;entryDy=0;" edge="1" parent="1" source="8FOSQ_KOmECjReQ8Uwmb-23" target="8FOSQ_KOmECjReQ8Uwmb-24">
          <mxGeometry relative="1" as="geometry" />
        </mxCell>
        <mxCell id="8FOSQ_KOmECjReQ8Uwmb-27" style="edgeStyle=orthogonalEdgeStyle;rounded=0;orthogonalLoop=1;jettySize=auto;html=1;exitX=1;exitY=0.5;exitDx=0;exitDy=0;" edge="1" parent="1" source="8FOSQ_KOmECjReQ8Uwmb-23" target="8FOSQ_KOmECjReQ8Uwmb-25">
          <mxGeometry relative="1" as="geometry" />
        </mxCell>
        <mxCell id="8FOSQ_KOmECjReQ8Uwmb-23" value="判断请求" style="rhombus;whiteSpace=wrap;html=1;" vertex="1" parent="1">
          <mxGeometry x="251.5" y="565" width="77" height="30" as="geometry" />
        </mxCell>
        <mxCell id="8FOSQ_KOmECjReQ8Uwmb-43" style="edgeStyle=orthogonalEdgeStyle;rounded=0;orthogonalLoop=1;jettySize=auto;html=1;entryX=0.5;entryY=0;entryDx=0;entryDy=0;" edge="1" parent="1" source="8FOSQ_KOmECjReQ8Uwmb-24" target="8FOSQ_KOmECjReQ8Uwmb-29">
          <mxGeometry relative="1" as="geometry">
            <Array as="points">
              <mxPoint x="210" y="670" />
              <mxPoint x="290" y="670" />
            </Array>
          </mxGeometry>
        </mxCell>
        <mxCell id="8FOSQ_KOmECjReQ8Uwmb-24" value="业务服务器" style="rounded=0;whiteSpace=wrap;html=1;" vertex="1" parent="1">
          <mxGeometry x="177.5" y="635" width="65" height="20" as="geometry" />
        </mxCell>
        <mxCell id="8FOSQ_KOmECjReQ8Uwmb-44" style="edgeStyle=orthogonalEdgeStyle;rounded=0;orthogonalLoop=1;jettySize=auto;html=1;" edge="1" parent="1" source="8FOSQ_KOmECjReQ8Uwmb-25" target="8FOSQ_KOmECjReQ8Uwmb-29">
          <mxGeometry relative="1" as="geometry">
            <Array as="points">
              <mxPoint x="370" y="670" />
              <mxPoint x="290" y="670" />
            </Array>
          </mxGeometry>
        </mxCell>
        <mxCell id="8FOSQ_KOmECjReQ8Uwmb-25" value="文件服务器" style="rounded=0;whiteSpace=wrap;html=1;" vertex="1" parent="1">
          <mxGeometry x="337.5" y="635" width="65" height="20" as="geometry" />
        </mxCell>
        <mxCell id="8FOSQ_KOmECjReQ8Uwmb-29" value="结束" style="rounded=1;whiteSpace=wrap;html=1;" vertex="1" parent="1">
          <mxGeometry x="255" y="715" width="70" height="20" as="geometry" />
        </mxCell>
        <mxCell id="8FOSQ_KOmECjReQ8Uwmb-36" value="亚马逊验签规则4&lt;br&gt;" style="strokeWidth=2;html=1;shape=mxgraph.flowchart.annotation_2;align=left;labelPosition=right;pointerEvents=1;" vertex="1" parent="1">
          <mxGeometry x="330" y="467.5" width="50" height="35" as="geometry" />
        </mxCell>
        <mxCell id="8FOSQ_KOmECjReQ8Uwmb-38" value="判断规则：&lt;br&gt;url第一个路径就是 Bucket&lt;br&gt;url第二个是文件的 Key&lt;br&gt;再根据方法来判断增删改查&lt;br&gt;&lt;br&gt;文件服务器需要拿到app_id，加签访问业务服务器&lt;br&gt;返回值是xml格式" style="strokeWidth=2;html=1;shape=mxgraph.flowchart.annotation_2;align=left;labelPosition=right;pointerEvents=1;" vertex="1" parent="1">
          <mxGeometry x="420" y="580" width="50" height="115" as="geometry" />
        </mxCell>
      </root>
    </mxGraphModel>
  </diagram>
</mxfile>
